<svg width="35" height="35" viewBox="0 0 35 35" fill="none" xmlns="http://www.w3.org/2000/svg">
<g id="&#240;&#159;&#166;&#134; icon &#34;facebook icon&#34;">
<path id="Vector" d="M24.5926 4.71714C24.5926 4.52916 24.518 4.34889 24.385 4.21597C24.2521 4.08305 24.0719 4.00838 23.8839 4.00838H20.3401C18.5556 3.91949 16.8085 4.5405 15.4805 5.73573C14.1524 6.93096 13.3515 8.60324 13.2525 10.3872V14.2145H9.70876C9.52078 14.2145 9.34051 14.2891 9.20759 14.4221C9.07467 14.555 9 14.7353 9 14.9232V18.6088C9 18.7967 9.07467 18.977 9.20759 19.1099C9.34051 19.2428 9.52078 19.3175 9.70876 19.3175H13.2525V28.8149C13.2525 29.0028 13.3272 29.1831 13.4601 29.316C13.593 29.4489 13.7733 29.5236 13.9613 29.5236H18.2138C18.4018 29.5236 18.5821 29.4489 18.715 29.316C18.8479 29.1831 18.9226 29.0028 18.9226 28.8149V19.3175H22.6365C22.7941 19.3198 22.948 19.2694 23.0738 19.1745C23.1995 19.0795 23.2901 18.9453 23.3311 18.793L24.3517 15.1075C24.3799 15.0028 24.3837 14.893 24.3627 14.7866C24.3418 14.6801 24.2968 14.5799 24.2311 14.4937C24.1653 14.4074 24.0807 14.3374 23.9836 14.289C23.8866 14.2406 23.7797 14.2151 23.6713 14.2145H18.9226V10.3872C18.9578 10.0363 19.1226 9.71119 19.3847 9.47529C19.6468 9.23939 19.9875 9.10966 20.3401 9.11143H23.8839C24.0719 9.11143 24.2521 9.03675 24.385 8.90384C24.518 8.77092 24.5926 8.59064 24.5926 8.40267V4.71714Z" fill="white"/>
</g>
</svg>
